<svg xmlns="http://www.w3.org/2000/svg" width="250" height="125" viewBox="0 0 1280 894" version="1.1"><path d="" stroke="none" fill="#493a3a" fill-rule="evenodd"/><path d="M 608.025 289.470 C 604.358 293.889, 580.679 304.423, 568.541 307.035 C 562.824 308.265, 561 309.491, 561 312.103 C 561 313.976, 561.740 314.279, 569.292 315.496 L 573.084 316.106 569.820 320.303 C 555.610 338.575, 555.498 338.630, 547.591 331.234 C 457.318 246.788, 307.926 307.256, 302.342 430.500 C 301.499 449.095, 305.411 474.081, 311.415 488.450 C 312.899 492.003, 310.969 494.817, 290.342 519.167 C 283.502 527.240, 281.508 531, 284.064 531 C 284.650 531, 289.262 534.666, 294.314 539.148 C 311.960 554.800, 311.772 554.725, 316.044 547.750 C 317.812 544.862, 322.159 538.776, 325.704 534.224 L 332.148 525.949 336.824 531.117 C 339.396 533.960, 341.654 536.684, 341.843 537.171 C 345.394 546.343, 383.767 569.464, 409 577.635 C 470.836 597.659, 543.869 565.338, 577.410 503.104 C 586.568 486.111, 587.465 486.543, 543 486.507 C 538.325 486.503, 534.216 486.110, 533.868 485.632 C 533.521 485.155, 531.324 487.405, 528.985 490.632 C 509.707 517.238, 479.343 533.497, 450.275 532.780 L 438.920 532.500 447.261 521.500 C 451.849 515.450, 461.879 502.588, 469.551 492.918 C 477.223 483.247, 489.661 467.497, 497.192 457.918 C 545.211 396.830, 542.174 400.281, 553.665 393.754 C 556.324 392.243, 561.425 389.161, 565 386.904 C 568.575 384.647, 573.188 381.937, 575.250 380.880 C 580.541 378.170, 580.244 374.036, 574.069 364.423 C 572.755 362.377, 577.871 354.868, 592.416 337.500 L 594.928 334.500 594.964 337.323 C 594.991 339.451, 595.426 340.065, 596.729 339.814 C 598.541 339.465, 598.519 339.533, 603.867 317.500 C 605.469 310.900, 607.963 302.134, 609.408 298.020 C 612.499 289.226, 611.802 284.919, 608.025 289.470 M 434.724 342.609 C 434.389 342.944, 430.601 343.873, 426.307 344.674 C 387.076 351.986, 351.778 395.652, 353.211 435.099 L 353.500 443.066 359.803 435.506 C 363.270 431.349, 368.020 425.596, 370.359 422.723 C 372.697 419.850, 376.836 414.767, 379.555 411.426 C 385.704 403.874, 414.914 368.747, 425 356.778 C 429.125 351.882, 433.170 346.791, 433.990 345.465 C 434.809 344.139, 436.159 342.869, 436.990 342.643 C 438.272 342.294, 438.261 342.214, 436.917 342.116 C 436.046 342.052, 435.059 342.274, 434.724 342.609 M 443.158 342.804 C 442.168 343.488, 442.088 344.227, 442.850 345.616 C 443.420 346.652, 444.630 357.400, 445.541 369.500 C 446.451 381.600, 447.563 393.767, 448.011 396.538 C 448.459 399.310, 449.565 411.235, 450.468 423.038 C 452.487 449.431, 452.927 453.203, 453.938 452.810 C 455.119 452.351, 465.252 441.027, 486 416.979 C 496.175 405.186, 508.212 391.422, 512.750 386.393 C 523.158 374.857, 522.106 371.847, 503 358.487 C 487.564 347.694, 450.233 337.911, 443.158 342.804 M 411.372 424.684 C 409.816 426.783, 403.560 434.800, 397.469 442.500 C 363.063 485.999, 364.277 483.727, 370.662 492.675 C 390.742 520.815, 437.065 543.265, 432.640 522.713 C 431.667 518.196, 429.792 507.408, 428.472 498.741 C 427.152 490.073, 425.602 481.235, 425.027 479.100 C 424.452 476.965, 423.306 470.332, 422.481 464.359 C 421.032 453.880, 415.107 421.829, 414.499 421.184 C 414.336 421.011, 412.929 422.586, 411.372 424.684" stroke="none" fill="#0e0d0d" fill-rule="evenodd"/></svg>