<svg xmlns="http://www.w3.org/2000/svg" width="910" height="474" viewBox="0 0 910 474" version="1.1"><path d="M 459.297 240.795 C 458.635 241.216, 461.110 241.397, 464.797 241.198 L 471.500 240.835 473.428 245.609 L 475.356 250.382 474.183 258.941 C 473.538 263.648, 472.671 269.300, 472.255 271.500 C 471.840 273.700, 471.762 278.200, 472.082 281.500 L 472.664 287.500 472.832 279.299 C 472.924 274.788, 473.675 268.506, 474.500 265.339 C 476.445 257.871, 476.461 247.991, 474.532 245.441 C 473.724 244.374, 473.049 242.713, 473.032 241.750 L 473 240 466.750 240.015 C 463.313 240.024, 459.959 240.375, 459.297 240.795 M 449.441 245.563 C 434.777 254.356, 423.408 270.768, 418.890 289.667 L 416.778 298.500 417.324 305.161 C 419.373 330.201, 438.384 329.238, 455.796 303.211 L 459.334 297.923 460.152 299.211 C 460.601 299.920, 461.021 301.850, 461.084 303.500 C 461.148 305.150, 461.589 307.625, 462.064 309 L 462.930 311.500 462.399 307 C 460.845 293.833, 460.705 293.744, 455.088 302.365 C 446.902 314.929, 438.300 321.990, 431.173 321.996 L 426.846 322 424.017 319.171 C 409.245 304.399, 426.422 259.170, 452.201 244.958 C 455.115 243.351, 457.024 242.028, 456.441 242.018 C 455.859 242.008, 452.709 243.603, 449.441 245.563 M 714.967 248.254 L 709.522 251.507 704.914 258.216 C 702.380 261.906, 699.262 267.979, 697.986 271.712 L 695.665 278.500 695.227 289.678 L 694.789 300.855 696.930 307.289 C 702.229 323.212, 713.379 327.993, 725.770 319.654 L 730.633 316.382 730.253 321.941 C 729.815 328.332, 726.476 352.725, 724.426 364.500 L 723.033 372.500 720.906 374.250 C 719.736 375.212, 718.107 376, 717.287 376 C 697.098 376, 659.342 416.520, 660.117 437.355 L 660.234 440.500 661.122 435.158 C 665.216 410.530, 689.787 385.277, 717.762 376.946 C 724.413 374.965, 727.599 361.744, 731.422 320.250 C 731.996 314.025, 732.303 314.123, 725.735 318.443 C 713.831 326.271, 705.452 323.619, 699.111 310.013 L 696.541 304.500 696.545 292 L 696.550 279.500 698.396 274 C 708.246 244.648, 734.083 235.474, 741.074 258.846 C 741.933 261.716, 743.139 263.482, 744.626 264.048 C 749.450 265.882, 749.852 271.395, 747.089 297.878 C 746.437 304.135, 746.072 309.985, 746.279 310.878 C 746.486 311.770, 746.960 308.450, 747.332 303.500 C 747.705 298.550, 748.500 291.718, 749.100 288.317 C 751.601 274.132, 750.204 264.613, 745.441 263.402 L 743.382 262.879 742.227 258.559 C 739.973 250.131, 733.550 245, 725.255 245 L 720.412 245 714.967 248.254 M 455.287 254.089 C 434.511 269.884, 417.112 303.375, 427.592 307.397 C 433.489 309.660, 460.296 281.998, 459.930 274.029 L 459.859 272.500 459.180 274 C 452.975 287.693, 438.426 303.600, 430.224 305.659 C 424.112 307.193, 425.536 295.703, 433.336 280.553 L 437.428 272.607 445.964 264.012 C 459.684 250.198, 465.272 247.145, 462.511 254.970 C 461.680 257.325, 461.049 260.432, 461.110 261.876 L 461.219 264.500 462.031 260.407 C 462.698 257.042, 464.582 252.021, 466.781 247.750 C 467.993 245.394, 463.370 247.944, 455.287 254.089 M 563.500 248.662 C 556.015 252.607, 545.988 269, 551.059 269 C 551.641 269, 551.823 268.522, 551.462 267.938 C 551.101 267.354, 552.306 263.951, 554.140 260.375 L 557.474 253.875 561.908 250.937 L 566.343 248 570.449 248 C 577.208 248, 581.151 252.202, 582.956 261.326 L 583.781 265.500 583.868 262.500 C 584.196 251.276, 572.987 243.660, 563.500 248.662 M 601.214 254.480 C 598.307 255.834, 593.490 259.379, 590.510 262.359 C 587.506 265.363, 584.884 267.270, 584.625 266.639 C 584.368 266.012, 584.122 266.288, 584.079 267.250 C 583.958 269.937, 584.816 269.447, 590.881 263.366 C 593.971 260.268, 598.902 256.617, 601.838 255.252 L 607.177 252.772 612.991 253.193 L 618.804 253.613 622.307 256.285 C 626.289 259.322, 629.272 263.787, 632.734 271.892 C 634.052 274.976, 634.841 276.150, 634.487 274.500 C 630.660 256.634, 615.797 247.691, 601.214 254.480 M 837.268 254.965 C 829.292 258.586, 819.380 268.733, 814.460 278.317 C 813.160 280.847, 810.900 283.006, 807.750 284.725 C 802.384 287.654, 801.668 290.081, 805.441 292.554 C 806.784 293.433, 808.082 294.906, 808.325 295.827 L 808.768 297.500 808.884 295.225 L 809 292.950 806.500 292 C 802.796 290.592, 803.447 288.514, 808.523 285.540 L 813.046 282.889 816.185 277.326 C 821.039 268.726, 829.231 260.504, 836.523 256.914 L 842.864 253.792 849.120 254.269 L 855.376 254.746 857.175 256.968 C 858.164 258.190, 859.450 260.959, 860.033 263.121 L 861.091 267.053 860.046 272.710 C 859.471 275.822, 859 278.507, 859 278.679 C 859 283.094, 841.316 293.829, 832.083 295.018 L 826.500 295.738 830.556 295.869 C 852.564 296.580, 871.230 268.312, 857.285 255.389 L 854.708 253 848.104 253.022 C 843.766 253.036, 840.048 253.703, 837.268 254.965 M 717.501 271.369 L 712.132 276.737 710.511 282.315 C 706.959 294.532, 713.938 304.222, 725.500 303.128 C 733.797 302.342, 737.723 267.726, 729.690 266.179 L 727.931 265.840 730.610 268.520 L 733.290 271.199 732.680 280.850 C 732.345 286.157, 731.267 292.975, 730.285 296 L 728.500 301.500 724.214 301.809 L 719.928 302.119 716.565 300.040 C 706.320 293.708, 709.761 276.343, 722.863 268.255 C 725.301 266.750, 725.901 266.009, 724.685 266.005 C 723.686 266.002, 720.454 268.416, 717.501 271.369 M 841.748 269.415 C 837.464 270.957, 831 275.598, 831 277.130 C 831 278.574, 836.316 277.327, 843.293 274.246 L 849.087 271.688 848.782 270.105 C 848.374 267.990, 846.276 267.784, 841.748 269.415 M 836.426 273.586 L 831.500 277.171 834 276.502 C 835.375 276.134, 839.200 274.537, 842.500 272.954 L 848.500 270.075 844.926 270.037 L 841.352 270 836.426 273.586 M 635.409 279.500 C 636.408 283.463, 638.863 294.622, 640.028 300.500 C 641.930 310.093, 645.003 319.757, 646.561 321.051 L 648 322.245 649.550 320.959 C 650.402 320.251, 652.930 315.809, 655.167 311.086 C 661.311 298.115, 664.476 295.983, 669.023 301.750 L 671.191 304.500 670.822 311 L 670.453 317.500 665.800 327.054 C 661.185 336.528, 655.033 344.243, 650.703 345.986 L 648.500 346.873 650.298 346.937 C 653.855 347.062, 661.595 337.723, 666.905 326.900 L 672 316.514 672 310.707 C 672 304.574, 670.151 299.655, 667.455 298.621 C 662.470 296.708, 659.988 298.942, 654.193 310.556 C 650.157 318.644, 647.646 321.854, 646.635 320.218 C 645.401 318.222, 643.082 309.973, 641.514 302 C 639.199 290.233, 636.848 280.782, 635.793 279 L 634.905 277.500 635.409 279.500 M 571.150 287.203 C 571.067 288.689, 569.003 294.781, 566.562 300.740 C 556.811 324.550, 555.178 340.982, 562.132 345.322 L 563.764 346.341 566.838 345.067 C 568.888 344.218, 570.233 342.744, 570.872 340.647 C 572.172 336.385, 573.317 329.363, 572.596 330.076 C 572.276 330.393, 571.561 333.093, 571.006 336.076 C 569.420 344.614, 563.575 347.946, 560.526 342.050 C 556.900 335.038, 559.327 320.847, 567.613 300.618 C 570.293 294.072, 571.939 288.622, 571.700 287.080 L 571.300 284.500 571.150 287.203 M 473.561 291.500 C 474.324 297.183, 476.821 304.613, 480.114 311 C 488.651 327.559, 499.175 329.291, 511.125 316.104 L 515.750 311 518.318 311 C 532.083 311, 521.118 338.021, 504.213 345.760 L 498.805 348.236 494.153 347.786 C 481.757 346.589, 471.872 336.395, 465.323 318.056 C 464.035 314.450, 463.270 313.069, 463.623 314.988 C 467.103 333.935, 483.486 350.333, 497.370 348.768 C 510.896 347.243, 525 332.296, 525 319.487 L 525 313.909 522.655 311.564 L 520.309 309.218 517.636 309.729 C 516.167 310.010, 512.834 312.476, 510.232 315.209 C 494.914 331.292, 483.737 324.583, 474.901 294 L 473.023 287.500 473.561 291.500 M 820.885 298.750 C 820.288 300.289, 819.996 305.462, 820.221 310.500 L 820.623 319.500 822.866 324.500 C 828.956 338.076, 849.082 347.086, 864.500 343.139 L 868.500 342.115 861.440 342.668 C 837.420 344.549, 820.969 330.582, 821.014 308.346 C 821.031 299.558, 821.704 297.210, 824.352 296.692 L 826.500 296.272 824.225 296.136 L 821.950 296 820.885 298.750 M 624.133 299.500 C 623.532 315.941, 635.829 347.077, 642.885 346.977 C 643.773 346.965, 643.131 346.279, 641.458 345.453 C 635.279 342.403, 631.610 334.155, 627.912 315 C 625.280 301.363, 624.224 297.031, 624.133 299.500 M 806.630 300.250 C 805.840 303.199, 806.012 324.834, 806.850 327.813 C 807.207 329.086, 807.500 322.899, 807.500 314.064 C 807.500 305.229, 807.440 298.001, 807.367 298.001 C 807.293 298, 806.962 299.012, 806.630 300.250 M 743.610 329 C 742.826 335.784, 739.449 359.764, 738.365 366.250 C 737.594 370.861, 737.274 370.856, 750.523 366.470 C 761.256 362.916, 769.246 359.333, 774.154 355.872 C 782.082 350.282, 788.012 362.908, 782.051 372.684 C 778.850 377.933, 754.582 390.722, 747.145 391.079 C 746.213 391.124, 746.014 391.367, 746.685 391.641 C 749.020 392.592, 766.240 385.768, 775.274 380.313 C 785.898 373.897, 789.451 358.618, 781.528 353.426 L 779.134 351.858 769.817 356.824 C 761.007 361.520, 754.596 364.117, 743.797 367.362 L 739.095 368.776 739.527 366.138 C 742.870 345.744, 745.282 326.666, 744.796 324.463 C 744.557 323.384, 744.024 325.425, 743.610 329 M 808.437 334.152 C 812.481 370.542, 888.970 382.186, 907.416 349.220 C 907.946 348.274, 905.931 350.091, 902.939 353.258 L 897.500 359.015 890.500 361.513 C 851.296 375.501, 816.664 363.918, 809.001 334.254 L 808.031 330.500 808.437 334.152 M 707.062 405.047 C 680.808 417.467, 661.783 446, 679.755 446 C 687.952 446, 708 428.063, 708 420.729 C 708 420.203, 706.097 422.636, 703.770 426.136 C 693.743 441.223, 682.639 448.088, 674.934 443.965 C 666.305 439.347, 688.653 414.305, 710.091 404.571 C 713.066 403.220, 715.050 402.090, 714.500 402.058 C 713.950 402.027, 710.603 403.372, 707.062 405.047" stroke="none" fill="#9e6b1e" fill-rule="evenodd"/><path d="M 159.141 2.859 C 153.972 8.028, 146 27.646, 146 35.198 C 146 36.340, 142.998 38.417, 136.881 41.506 C 131.866 44.040, 125.262 47.960, 122.205 50.218 C 119.149 52.476, 112.641 57.003, 107.744 60.279 C 89.499 72.483, 61.284 97.523, 50.592 111 C 44.711 118.412, 38 127.753, 38 128.525 C 38 128.812, 35.851 132.298, 33.224 136.273 C 3.551 181.168, -7.569 246.267, 7.904 284.500 C 17.917 309.243, 33.731 328.495, 50 335.747 C 62.228 341.198, 64.876 342.132, 72.664 343.735 L 81.057 345.462 80.572 347.981 C 80.305 349.367, 78.656 357.925, 76.908 367 C 75.159 376.075, 73.677 385.391, 73.614 387.701 L 73.500 391.903 77.453 395.951 L 81.406 400 85.662 400 L 89.919 400 92.210 397.680 C 93.469 396.404, 95.670 394.637, 97.101 393.754 L 99.701 392.149 100.896 384.325 C 101.553 380.021, 102.591 373.125, 103.204 369 C 103.817 364.875, 104.829 358.800, 105.452 355.500 L 106.586 349.500 126.543 348.817 C 161.328 347.626, 182.527 343.847, 197.806 336.114 C 199.838 335.086, 202.931 333.935, 204.681 333.558 C 206.430 333.180, 208.398 332.225, 209.053 331.436 C 209.709 330.646, 210.659 330, 211.165 330 C 211.672 330, 214.484 328.189, 217.415 325.976 L 222.744 321.953 223.755 316.843 C 225.002 310.533, 223.840 305.780, 220.517 303.603 L 218.070 302 210.469 302 C 206.289 302, 202.004 301.538, 200.948 300.972 L 199.028 299.945 197.292 301.972 C 196.337 303.088, 194.782 304, 193.837 304 C 192.891 304, 191.862 304.415, 191.548 304.922 C 191.031 305.758, 180.403 311.067, 175.500 312.938 C 161.648 318.224, 144.949 322, 135.428 322 C 133.058 322, 130.840 322.450, 130.500 323 C 130.160 323.550, 125.831 324, 120.880 324 L 111.877 324 112.466 319.250 C 113.052 314.525, 113.848 309.954, 116.077 298.500 C 116.719 295.200, 117.583 290.250, 117.998 287.500 C 118.412 284.750, 119.274 280.025, 119.913 277 C 120.552 273.975, 121.972 266.325, 123.069 260 C 130.102 219.453, 135.041 191.343, 137.477 178 C 138.331 173.325, 139.685 165.900, 140.487 161.500 C 141.289 157.100, 142.449 151.250, 143.064 148.500 C 143.680 145.750, 144.549 139.900, 144.996 135.500 C 145.443 131.100, 146.993 121.200, 148.441 113.500 C 149.889 105.800, 151.683 95.900, 152.426 91.500 C 154.698 78.060, 160.098 52.540, 160.820 51.835 C 166.757 46.033, 215.252 39.919, 219.740 44.407 C 220.066 44.733, 221.884 45, 223.780 45 L 227.227 45 226.790 42.024 L 226.354 39.048 227.927 40.236 C 228.792 40.889, 228.150 39.942, 226.500 38.131 C 224.850 36.320, 220.575 33.422, 217 31.692 L 210.500 28.546 190.500 28.523 L 170.500 28.500 168.164 29.831 C 164.793 31.752, 164.528 30.895, 165.713 21.914 L 166.779 13.847 165.435 8.755 C 164.697 5.955, 163.445 3.016, 162.653 2.225 L 161.214 0.786 159.141 2.859 M 134 63.726 C 118.814 72.661, 94.259 95.788, 78.499 116 C 73.138 122.875, 68.469 128.725, 68.124 129 C 65.909 130.766, 52.337 152.669, 48.886 160.048 C 34.129 191.600, 29.126 210.043, 27.470 239 L 26.812 250.500 28.420 260.500 C 29.304 266, 30.420 271.625, 30.898 273 C 31.377 274.375, 32.363 277.525, 33.091 280 C 36.461 291.464, 46.465 304.136, 55.974 308.987 C 58.114 310.078, 60.112 311.372, 60.415 311.863 C 60.718 312.353, 63.561 313.753, 66.733 314.974 C 74.486 317.960, 76.025 318.560, 79.297 319.875 C 80.835 320.494, 82.964 321, 84.028 321 C 86.077 321, 86.114 320.898, 88.042 310 C 88.674 306.425, 89.556 301.700, 90.001 299.500 C 91.812 290.557, 94.243 277.147, 95.077 271.500 C 95.565 268.200, 96.386 263.475, 96.902 261 C 97.418 258.525, 98.532 252.900, 99.378 248.500 C 100.224 244.100, 102.302 233.975, 103.995 226 C 105.688 218.025, 107.686 208.350, 108.434 204.500 C 109.183 200.650, 111.408 190.300, 113.379 181.500 C 115.349 172.700, 117.452 163.025, 118.051 160 C 118.651 156.975, 119.596 152.749, 120.153 150.608 C 120.710 148.467, 121.546 144.642, 122.011 142.108 C 122.956 136.959, 127.063 117.956, 129.382 108 C 130.215 104.425, 132.735 93.175, 134.981 83 C 137.228 72.825, 139.306 63.712, 139.600 62.750 C 140.314 60.414, 139.340 60.584, 134 63.726 M 295.370 73.570 C 283.662 85.983, 278 117.157, 278 169.203 L 278 195.125 271.522 198.063 L 265.044 201 259.772 201.016 L 254.500 201.033 250.500 203.292 L 246.500 205.550 246.173 208.383 C 245.725 212.269, 247.677 216.550, 251.279 219.582 L 254.299 222.123 264.400 221.785 C 269.955 221.599, 275.288 221.073, 276.250 220.616 L 278 219.786 278 228.717 L 278 237.648 274.339 246.074 C 267.584 261.624, 262.845 282.242, 262.635 297 L 262.500 306.500 264.762 310.734 C 274.691 329.318, 288.375 300.480, 293.344 250.500 C 294.393 239.949, 308.564 225, 317.517 225 C 325.934 225, 333.690 243.072, 336.617 269.500 C 337.042 273.336, 337.926 278.827, 338.631 282 C 338.814 282.825, 339.440 286.875, 340.022 291 C 343.999 319.177, 351.988 338.559, 362.450 345.412 L 366.400 348 371.362 348 L 376.324 348 380.497 345.555 C 391.499 339.107, 398.292 324.441, 392.706 319.194 L 390.413 317.039 383.238 320.520 C 366.315 328.729, 356.196 315.246, 353.580 281 C 348.749 217.748, 328.018 189.851, 300.776 209.942 L 296.500 213.096 296.202 209.752 L 295.904 206.409 300.545 199.487 C 312.728 181.319, 318.407 163.300, 320.869 135 L 321.956 122.500 320.552 109.500 C 317.620 82.356, 312.390 70.709, 302.880 70.148 L 298.822 69.909 295.370 73.570 M 301.583 89.250 C 299.728 95.791, 298.884 100.114, 297.533 110 L 295.960 121.500 296.230 145.500 L 296.500 169.500 299.170 159.500 C 300.638 154, 302.576 145.058, 303.476 139.628 L 305.112 129.757 304.928 111.648 L 304.745 93.540 303.369 91.440 C 302.612 90.285, 302.295 89.039, 302.663 88.670 C 303.032 88.302, 303.019 88, 302.635 88 C 302.251 88, 301.778 88.563, 301.583 89.250 M 454.500 243.853 C 427.651 256.613, 408.580 303.734, 424.017 319.171 L 426.846 322 431.173 321.996 C 438.300 321.990, 446.902 314.929, 455.088 302.365 C 460.054 294.743, 460.685 294.585, 461.524 300.750 C 465.196 327.746, 478.016 346.228, 494.153 347.786 L 498.805 348.236 504.213 345.760 C 521.118 338.021, 532.083 311, 518.318 311 L 515.750 311 511.125 316.104 C 498.753 329.757, 488.288 327.574, 479.469 309.500 C 473.262 296.780, 470.404 279.994, 472.626 269.312 C 473.291 266.115, 474.152 260.489, 474.541 256.809 L 475.247 250.118 473.373 245.563 L 471.500 241.007 466 241.005 L 460.500 241.002 454.500 243.853 M 717.500 247.657 C 710.251 251.466, 702.178 262.589, 698.380 274 L 696.550 279.500 696.545 292 L 696.541 304.500 699.111 310.013 C 705.452 323.619, 713.831 326.271, 725.735 318.443 C 732.303 314.123, 731.996 314.025, 731.422 320.250 C 727.599 361.744, 724.413 374.965, 717.762 376.946 C 679.738 388.270, 652.391 428.016, 661.506 458.707 L 663.011 463.778 667.009 467.389 L 671.006 471 678.375 471 L 685.743 471 693.122 466.127 C 697.180 463.446, 701.380 460.184, 702.456 458.877 C 709.361 450.489, 718.324 435.424, 722.010 426.009 C 723.193 422.990, 724.469 420.290, 724.847 420.009 C 725.224 419.729, 726.113 417.250, 726.822 414.500 C 727.530 411.750, 729.040 406.428, 730.176 402.674 L 732.241 395.847 734.371 395.024 C 735.542 394.572, 739.425 393.396, 743 392.411 C 770.774 384.760, 783.988 375.594, 783.996 363.973 C 784.002 354.812, 780.076 351.674, 774.012 355.992 C 767.483 360.641, 739.888 371.221, 738.337 369.670 C 738.041 369.374, 738.534 364.715, 739.432 359.316 C 741.680 345.806, 743.719 329.443, 745.515 310.500 C 746.349 301.700, 747.474 291.998, 748.016 288.940 C 750.378 275.596, 749.034 265.724, 744.626 264.048 C 743.139 263.482, 741.933 261.716, 741.074 258.846 C 737.709 247.595, 727.152 242.585, 717.500 247.657 M 455.287 254.089 C 436.945 268.034, 422.415 292.565, 425.416 304.522 C 427.680 313.543, 443.576 301.349, 456.732 280.500 L 459.887 275.500 461.312 266 C 462.501 258.077, 463.944 253.260, 466.781 247.750 C 467.993 245.394, 463.370 247.944, 455.287 254.089 M 561.908 250.937 L 557.474 253.875 554.140 260.375 C 549.516 269.389, 550.481 269.956, 560.937 264.369 C 573.602 257.602, 575.290 259.835, 572.930 280.234 L 571.743 290.500 567.434 301.037 C 559.328 320.860, 556.930 335.096, 560.526 342.050 C 563.071 346.972, 569.273 344.914, 570.475 338.749 C 576.547 307.587, 591.144 281.690, 606.454 274.918 L 611.019 272.898 614.069 274.699 C 618.698 277.432, 622.531 286.437, 625.051 300.500 C 634.465 353.045, 648.640 362.283, 665.800 327.054 L 670.453 317.500 670.822 311 L 671.191 304.500 669.023 301.750 C 664.476 295.983, 661.311 298.115, 655.167 311.086 C 652.930 315.809, 650.402 320.251, 649.550 320.959 L 648 322.245 646.561 321.051 C 644.994 319.750, 641.903 310.004, 640.044 300.500 C 635.356 276.532, 629.714 262.238, 622.735 256.644 L 618.969 253.625 613.073 253.199 L 607.177 252.772 601.838 255.252 C 598.902 256.617, 593.971 260.268, 590.881 263.366 C 584.095 270.169, 584.290 270.146, 583.430 264.250 C 581.805 253.096, 577.762 248, 570.537 248 L 566.343 248 561.908 250.937 M 836.316 256.978 C 829.189 260.565, 820.937 268.906, 816.185 277.326 L 813.046 282.889 808.523 285.540 C 803.401 288.541, 802.799 290.593, 806.613 292.043 L 809.226 293.036 808.523 295.768 C 808.136 297.271, 807.630 304.125, 807.397 311 L 806.975 323.500 808.462 330.732 C 815.186 363.445, 849.258 376.229, 890.500 361.513 L 897.500 359.015 902.750 353.461 L 908 347.907 908 343.010 L 908 338.113 905.777 336.557 C 902.568 334.309, 898.909 334.615, 888.277 338.021 C 876.718 341.723, 866.048 343.503, 855.500 343.489 L 847.500 343.478 841.223 341.107 C 833.493 338.187, 825.995 331.425, 822.807 324.500 L 820.506 319.500 820.503 308.802 C 820.499 296.176, 820.357 296.377, 830.179 295.162 C 841.241 293.793, 859 283.636, 859 278.679 C 859 278.507, 859.471 275.822, 860.046 272.710 L 861.091 267.053 860.033 263.121 C 859.450 260.959, 858.159 258.183, 857.163 256.953 L 855.352 254.716 848.926 254.291 L 842.500 253.865 836.316 256.978 M 717.559 271.311 L 712.132 276.737 710.511 282.315 C 706.959 294.532, 713.938 304.222, 725.500 303.128 C 731.708 302.540, 736.997 277.511, 732.712 269 L 731.453 266.500 727.219 266.192 L 722.985 265.884 717.559 271.311 M 841.748 269.415 C 837.464 270.957, 831 275.598, 831 277.130 C 831 278.574, 836.316 277.327, 843.293 274.246 L 849.087 271.688 848.782 270.105 C 848.374 267.990, 846.276 267.784, 841.748 269.415 M 707.062 405.047 C 677.568 419, 658.006 455.453, 685.653 444.942 C 694.118 441.723, 712.977 418.007, 710.394 413.828 C 710.112 413.373, 710.324 413, 710.863 413 C 711.871 413, 714.335 406.878, 714.586 403.750 C 714.771 401.456, 714.587 401.487, 707.062 405.047" stroke="none" fill="#d28305" fill-rule="evenodd"/></svg>