<svg xmlns="http://www.w3.org/2000/svg" width="1280" height="500" viewBox="0 0 1280 370" version="1.1"><path d="M 592.926 47.225 C 594.582 49.340, 593.656 50.623, 590 51.279 C 588.149 51.611, 588.459 51.763, 591.191 51.864 C 595.859 52.036, 596.643 50.789, 593.764 47.773 C 592.519 46.469, 592.142 46.222, 592.926 47.225 M 401.327 59.363 C 396.311 63.556, 373.611 73, 368.547 73 C 362.944 73, 364.856 77.736, 370.878 78.772 C 375.198 79.515, 373.784 82.064, 361.535 95.616 C 360.817 96.411, 358.655 95.029, 354.013 90.803 C 265.606 10.329, 126.324 100.359, 164.529 213.283 C 166.867 220.195, 166.867 220.195, 155.763 233.847 C 149.656 241.356, 144.191 248.111, 143.618 248.858 C 142.835 249.878, 143.229 250.692, 145.199 252.126 C 146.642 253.177, 151.752 257.404, 156.555 261.519 C 164.603 268.414, 168 270.371, 168 268.112 C 168 266.956, 174.371 257.676, 178.906 252.227 C 182.462 247.953, 182.462 247.953, 191.025 256.805 C 243.858 311.429, 335.825 301.961, 373.695 238 C 386.635 216.144, 386.866 216.942, 367.475 216.431 C 358.689 216.199, 349.475 215.792, 347 215.526 C 342.504 215.042, 342.496 215.047, 338.500 220.651 C 324.482 240.310, 300.134 253, 276.435 253 C 267.886 253, 267.608 252.570, 272.347 246.668 C 274.189 244.376, 288.444 226.300, 304.027 206.500 C 356.409 139.942, 348.159 148.716, 371.750 134.482 C 381.090 128.847, 381.486 127.910, 377.526 120.826 C 374.737 115.836, 389.258 93.235, 392.449 97.599 C 394.518 100.429, 395.663 98.494, 397.972 88.263 C 399.183 82.893, 401.485 74.155, 403.087 68.844 C 407.045 55.723, 406.862 54.736, 401.327 59.363 M 271.556 100.909 C 271.183 101.512, 271.142 103.917, 271.465 106.253 C 272.144 111.169, 274.584 137.063, 276.012 154.500 C 277.347 170.801, 279.133 187.345, 279.652 188.218 C 280.075 188.929, 284.882 183.862, 294.500 172.568 C 297.250 169.339, 299.950 166.197, 300.500 165.585 C 301.494 164.481, 305.654 159.716, 324.308 138.315 C 335.131 125.899, 335.150 126.002, 320.129 114.773 C 307.447 105.293, 274.635 95.927, 271.556 100.909 M 255.433 102.986 C 223.960 112.110, 202.332 138.418, 199.426 171.113 C 198.666 179.663, 199.602 181.382, 202.721 177.163 C 203.843 175.646, 213.927 163.398, 225.130 149.945 C 242.830 128.691, 261.293 106.208, 264.296 102.250 C 265.579 100.560, 263.086 100.767, 255.433 102.986 M 240.500 173.247 C 231.143 185.454, 216.184 204.834, 212.639 209.341 C 204.424 219.789, 233.791 246.285, 258.755 250.949 C 264.216 251.969, 264.106 252.353, 261.883 240 C 260.844 234.225, 259.569 226.800, 259.050 223.500 C 258.169 217.893, 252.680 185.932, 249.990 170.750 C 248.507 162.377, 248.915 162.270, 240.500 173.247" stroke="none" fill="#0f0e0e" fill-rule="evenodd"/><path d="M 542.430 22.281 C 541.369 23.536, 539.892 25.325, 539.148 26.257 C 538.405 27.188, 536.781 31.899, 535.539 36.725 C 533.281 45.500, 533.281 45.500, 527.917 48.369 C 447.348 91.466, 406.375 180.617, 440.071 239.510 C 448.893 254.928, 468.144 269, 480.416 269 C 485.856 269, 486.881 270.557, 485.479 276.689 C 480.025 300.550, 479.919 303.125, 484.223 307.056 C 487.666 310.201, 493.219 311.086, 494.700 308.726 C 495.140 308.025, 496.738 306.665, 498.250 305.703 C 500.118 304.515, 501 303.104, 501 301.305 C 501 299.848, 501.644 295.021, 502.431 290.578 C 503.218 286.135, 504.145 280.363, 504.492 277.750 C 505.123 273, 505.123 273, 517.885 273 C 536.393 273, 560.003 269.004, 570.500 264.095 C 571.600 263.580, 574.975 262.049, 578 260.692 C 589.867 255.368, 594.968 245.775, 588.925 240.145 C 585.624 237.070, 573.721 237.063, 568.280 240.133 C 553.728 248.343, 530.518 254.107, 510.504 254.481 C 509.144 254.507, 509.716 248.892, 512.642 233.500 C 516.711 212.093, 518.017 204.927, 519.476 196 C 520.241 191.325, 521.547 183.675, 522.379 179 C 523.211 174.325, 524.568 166.675, 525.394 162 C 526.221 157.325, 527.818 148.550, 528.944 142.500 C 532.186 125.081, 532.706 122.023, 533.957 113 C 534.605 108.325, 535.780 101.237, 536.568 97.250 C 537.356 93.263, 538.646 86.737, 539.435 82.750 C 540.224 78.763, 541.684 71.268, 542.680 66.096 C 544.752 55.335, 544.180 55.842, 558.628 51.961 C 565.514 50.111, 568.148 49.924, 579.662 50.471 C 593.760 51.140, 595.732 50.574, 592.348 46.829 C 586.600 40.468, 566.703 37.394, 550.704 40.396 C 546.965 41.097, 546.942 41.081, 547.661 38.301 C 550.396 27.722, 546.896 17.003, 542.430 22.281 M 525.500 65.200 C 470.997 96.242, 432.541 185.057, 454.575 229 C 457.822 235.474, 472.302 247.977, 476.588 248.006 C 477.089 248.010, 478.667 248.621, 480.093 249.365 C 486.247 252.577, 489.768 252.377, 490.453 248.779 C 490.796 246.976, 491.482 243.700, 491.977 241.500 C 492.471 239.300, 493.576 233.675, 494.430 229 C 495.911 220.903, 499.589 201.595, 502.527 186.500 C 503.276 182.650, 505.308 172.975, 507.042 165 C 508.776 157.025, 510.582 148.700, 511.056 146.500 C 515.698 124.959, 517.214 117.782, 518.028 113.500 C 518.550 110.750, 519.607 105.800, 520.378 102.500 C 521.148 99.200, 523.191 89.975, 524.918 82 C 526.646 74.025, 528.301 66.713, 528.597 65.750 C 529.215 63.738, 528.340 63.582, 525.500 65.200 M 643.283 71.415 C 638.056 75.813, 634.717 84.862, 631.444 103.500 C 631.058 105.700, 630.462 119.425, 630.121 134 C 629.438 163.147, 628.678 164.839, 616.215 164.959 C 607.338 165.044, 603.592 172.448, 609.579 178.076 C 612.341 180.672, 624.157 181.629, 628.367 179.597 C 631.142 178.258, 629.642 191.236, 625.952 200.487 C 619.083 217.711, 616.439 240.091, 620.614 245.687 C 628.297 255.987, 634.995 243.012, 640.586 207 C 642.296 195.989, 643.337 193.809, 650.002 187.299 C 656.332 181.117, 661.501 181.268, 665.285 187.747 C 668.538 193.318, 670.105 200.649, 674.531 231 C 679.801 267.136, 693.079 281.861, 708.132 268.262 C 720.049 257.495, 718.042 245.092, 705.419 251.496 C 694.305 257.135, 688.516 248.870, 685.461 223 C 679.856 175.534, 666.774 157.485, 647.469 170.586 C 642.050 174.263, 641.147 172.191, 645.426 165.893 C 649.615 159.730, 654.567 149.718, 656.255 144 C 657.148 140.975, 658.468 136.475, 659.189 134 C 660.910 128.092, 661.017 90.821, 659.326 86.500 C 658.680 84.850, 657.889 81.904, 657.569 79.954 C 656.206 71.659, 648.481 67.042, 643.283 71.415 M 646.147 88.540 C 642.504 104.200, 641.443 146.458, 644.992 134.500 C 648.124 123.951, 649.268 115.083, 649.232 101.625 C 649.192 85.971, 647.959 80.746, 646.147 88.540 M 757.206 195.979 C 739.215 204.490, 726.193 231.946, 732.578 247.903 C 737.011 258.983, 748.947 255.276, 759.310 239.601 C 762.212 235.210, 761.738 234.575, 763.959 245.822 C 769.018 271.440, 790.169 280.821, 804.513 263.809 C 815.501 250.778, 809.265 237.785, 797.406 249 C 787.015 258.828, 780.095 254.469, 773.816 234.139 C 771.773 227.525, 771.736 223.845, 773.536 206.500 C 774.912 193.254, 769.854 189.996, 757.206 195.979 M 951.047 197.285 C 949.148 197.901, 945.841 200.159, 943.698 202.302 C 923.868 222.132, 934.041 266.924, 954.989 252.008 C 956.540 250.904, 957.983 250, 958.195 250 C 958.764 250, 957.211 266.599, 956.094 272.459 C 955.566 275.232, 954.844 279.750, 954.489 282.500 C 953.795 287.884, 951.719 292, 949.699 292 C 935.803 292, 911.366 316.487, 907.953 333.831 C 900.756 370.414, 932.995 371.299, 950.516 335 C 952.507 330.875, 954.484 326.825, 954.909 326 C 955.335 325.175, 956.880 320.649, 958.342 315.941 C 961.001 307.382, 961.001 307.382, 968.751 305.076 C 990.953 298.468, 998.980 292.583, 998.993 282.905 C 999.005 274.494, 995.965 273.408, 986.688 278.507 C 981.976 281.097, 967.252 287, 965.503 287 C 965.423 287, 966.131 281.938, 967.078 275.750 C 968.025 269.563, 969.523 257.750, 970.408 249.500 C 971.292 241.250, 972.526 230.846, 973.149 226.380 C 974.426 217.229, 973.921 213.921, 970.769 210.769 C 969.569 209.569, 967.668 206.795, 966.544 204.603 C 963.061 197.811, 957.507 195.189, 951.047 197.285 M 839.500 198.733 C 832.531 200.478, 823.629 215, 829.529 215 C 830.928 215, 837.363 211.711, 839.737 209.782 C 845.325 205.241, 845.581 224.232, 840.093 236.176 C 832.714 252.236, 831.118 268.296, 836.689 270.434 C 840.442 271.874, 842.539 268.557, 845.909 255.846 C 855.475 219.767, 876.567 207.360, 880.997 235.206 C 885.574 263.974, 889.377 272, 898.431 272 C 908.650 272, 921.326 243.881, 914.282 236.838 C 910.882 233.437, 907.798 235.465, 903.555 243.890 C 898.178 254.568, 897.597 254.094, 893.877 236 C 886.920 202.158, 874.807 193.154, 857.588 209.025 C 853.056 213.203, 853.056 213.203, 852.366 208.852 C 851.894 205.872, 850.655 203.475, 848.438 201.250 C 845.309 198.109, 843.747 197.669, 839.500 198.733 M 758.186 205.442 C 745.567 214.732, 731.925 241, 739.720 241 C 747.220 241, 761.188 222.953, 762.553 211.500 C 762.946 208.200, 763.646 204.488, 764.109 203.250 C 765.220 200.280, 765.176 200.296, 758.186 205.442 M 1040.692 203.043 C 1033.518 204.248, 1025.503 210.980, 1020.788 219.760 C 1019.530 222.103, 1017.825 224.248, 1017 224.527 C 1012.094 226.183, 1010.425 228.759, 1012.688 231.183 C 1014.739 233.381, 1014.793 233.893, 1013.743 241.129 C 1008.162 279.599, 1057.388 304.766, 1084.303 277.202 C 1095.808 265.419, 1088.123 259.036, 1069.500 264.907 C 1043.528 273.093, 1025 263.691, 1025 242.326 C 1025 235.228, 1026.251 234, 1033.482 234 C 1047.264 234, 1058.753 218.712, 1053.419 207.471 C 1052.196 204.894, 1046.540 201.021, 1045.601 202.118 C 1045.545 202.182, 1043.337 202.599, 1040.692 203.043 M 950.731 216.250 C 942.768 223.835, 942.649 234.284, 950.487 237.559 C 956.655 240.136, 959.088 236.859, 960.554 224 C 961.783 213.216, 957.480 209.821, 950.731 216.250 M 1038.500 216.569 C 1036.850 217.425, 1035.050 218.581, 1034.500 219.139 C 1033.341 220.315, 1042.027 217.122, 1043.450 215.850 C 1045.056 214.414, 1041.720 214.898, 1038.500 216.569 M 941.228 314.967 C 923.647 324.581, 911.036 342, 921.657 342 C 929.109 342, 936.665 334.706, 943.200 321.205 C 947.961 311.368, 947.939 311.297, 941.228 314.967" stroke="none" fill="#cf8207" fill-rule="evenodd"/></svg>