<svg xmlns="http://www.w3.org/2000/svg" width="25" height="25" viewBox="0 0 360 360" version="1.1"><path d="M 79.449 31.551 C 76.514 33, 72.267 38.600, 73.311 39.645 C 73.590 39.923, 74.110 39.229, 74.468 38.101 C 74.826 36.974, 76.554 35.028, 78.309 33.776 C 81.500 31.500, 81.500 31.500, 182.500 30.991 C 283.500 30.481, 283.500 30.481, 183 30.263 C 95.209 30.073, 82.114 30.236, 79.449 31.551 M 183 64.978 C 261.839 65.530, 260.076 65.415, 263.449 70.230 C 264.302 71.448, 265 71.979, 265 71.410 C 265 70.840, 263.621 69.052, 261.935 67.437 C 258.869 64.500, 258.869 64.500, 183.685 64.478 C 108.500 64.456, 108.500 64.456, 183 64.978 M 147.750 112.750 C 167.138 112.901, 198.863 112.901, 218.250 112.750 C 237.638 112.598, 221.775 112.474, 183 112.474 C 144.225 112.474, 128.363 112.598, 147.750 112.750 M 85.461 238.500 C 85.461 263.800, 85.591 274.007, 85.749 261.181 C 85.908 248.356, 85.907 227.656, 85.749 215.181 C 85.590 202.707, 85.461 213.200, 85.461 238.500 M 133.326 323.750 C 160.730 323.898, 205.280 323.898, 232.326 323.750 C 259.372 323.602, 236.950 323.481, 182.500 323.481 C 128.050 323.481, 105.922 323.602, 133.326 323.750" stroke="none" fill="#4d4d4d" fill-rule="evenodd"/><path d="M 79.213 33.139 C 72.557 37.400, 73 27.131, 73 177.302 C 73 313.704, 73 313.704, 75.280 317.088 C 76.534 318.948, 78.672 321.033, 80.030 321.721 C 83.870 323.664, 280.728 323.559, 285.389 321.611 C 287.692 320.648, 289.373 318.861, 290.857 315.795 C 293 311.369, 293 311.369, 293 175.845 C 293 40.322, 293 40.322, 290.250 36.735 C 288.738 34.762, 286.466 32.664, 285.203 32.074 C 283.614 31.331, 252.027 31.005, 182.703 31.017 C 82.556 31.034, 82.498 31.035, 79.213 33.139 M 85.668 43.750 C 85.420 44.163, 85.151 104.462, 85.070 177.750 C 84.922 311, 84.922 311, 182.402 311 C 236.016 311, 280.107 310.636, 280.382 310.191 C 280.657 309.746, 280.611 249.446, 280.280 176.191 C 279.678 43, 279.678 43, 182.898 43 C 129.669 43, 85.915 43.337, 85.668 43.750 M 105.627 67.205 C 100.601 70.951, 100 73.998, 100.004 95.718 C 100.007 113.562, 100.198 115.813, 101.956 118.696 C 106.003 125.333, 101.171 124.939, 182.091 125.233 C 253.295 125.492, 255.677 125.440, 258.542 123.567 C 264.697 119.544, 264.475 120.524, 264.802 95.855 C 265.006 80.444, 264.743 72.388, 263.988 70.978 C 263.374 69.831, 261.439 68.019, 259.686 66.950 C 256.606 65.072, 254.039 65.008, 182.500 65.035 C 108.500 65.063, 108.500 65.063, 105.627 67.205 M 113 95 C 113 113, 113 113, 183 113 C 253 113, 253 113, 253 95 C 253 77, 253 77, 183 77 C 113 77, 113 77, 113 95 M 113.841 144.524 C 112.379 145.318, 110.205 147.550, 109.010 149.484 C 107.027 152.692, 106.866 154.088, 107.168 165.437 C 107.494 177.660, 107.551 177.928, 110.458 180.960 C 114.626 185.305, 118.961 186.291, 131.952 185.846 C 143.189 185.462, 143.189 185.462, 146.594 181.746 C 150.344 177.654, 150.563 176.270, 150.042 160 C 149.558 144.895, 147.161 142.980, 128.800 143.040 C 120.037 143.069, 115.735 143.495, 113.841 144.524 M 167.841 144.524 C 162.426 147.466, 161 151.552, 161 164.134 C 161 183.241, 163.838 185.998, 183.500 185.995 C 193.639 185.993, 195.996 185.690, 198.701 184.040 C 203.982 180.821, 205 177.614, 205 164.198 C 205 153.464, 204.776 151.964, 202.720 148.912 C 201.466 147.052, 199.328 144.967, 197.970 144.279 C 194.343 142.444, 171.327 142.631, 167.841 144.524 M 220.262 145.250 C 215.837 148.352, 214.998 151.496, 215.015 164.899 C 215.031 177.924, 215.771 180.254, 221.015 183.791 C 224.313 186.016, 225.216 186.125, 237.829 185.821 C 251.159 185.500, 251.159 185.500, 254.579 181.765 C 258 178.029, 258 178.029, 258 164.949 C 258 144.562, 256.455 143, 236.302 143 C 224.614 143, 223.186 143.200, 220.262 145.250 M 120 163.929 C 120 172.858, 120 172.858, 129.002 173.179 C 138.005 173.500, 138.005 173.500, 138.002 164.250 C 138 155, 138 155, 129 155 C 120 155, 120 155, 120 163.929 M 173.998 164.250 C 173.995 173.500, 173.995 173.500, 182.998 173.179 C 192 172.858, 192 172.858, 192 163.929 C 192 155, 192 155, 183 155 C 174 155, 174 155, 173.998 164.250 M 228.211 163.750 C 228.500 172.500, 228.500 172.500, 237.252 173 C 246.004 173.500, 246.004 173.500, 246.002 164.250 C 246 155, 246 155, 236.961 155 C 227.922 155, 227.922 155, 228.211 163.750 M 178.948 194.928 C 163.557 195.849, 161 198.852, 161 216 C 161 227.246, 162.236 231.467, 166.514 234.832 C 169.023 236.806, 170.442 237, 182.385 236.996 C 193.729 236.993, 195.942 236.723, 198.775 234.996 C 200.576 233.898, 202.423 231.987, 202.880 230.750 C 203.337 229.512, 203.986 222.858, 204.323 215.963 C 204.874 204.701, 204.741 203.103, 203.013 200.261 C 200.645 196.367, 196.174 193.942, 191.800 194.178 C 189.985 194.276, 184.201 194.614, 178.948 194.928 M 221.299 195.923 C 216.091 199.157, 215 202.459, 215 214.982 C 215 227.303, 216.135 231.388, 220.514 234.832 C 223.023 236.806, 224.442 237, 236.385 236.996 C 247.729 236.993, 249.942 236.723, 252.775 234.996 C 257.484 232.125, 258.186 229.247, 257.822 214.305 C 257.534 202.497, 257.283 200.907, 255.437 199.190 C 251.772 195.780, 249.707 195.266, 237 194.595 C 225.597 193.993, 224.219 194.110, 221.299 195.923 M 112.979 197.250 C 108.521 200.275, 107.167 204.642, 107.076 216.282 C 106.991 227.248, 108.225 231.459, 112.514 234.832 C 115.023 236.806, 116.442 237, 128.385 236.996 C 139.729 236.993, 141.942 236.723, 144.775 234.996 C 149.290 232.243, 150 229.663, 150 216 C 150 202.337, 149.290 199.757, 144.775 197.004 C 141.960 195.288, 139.729 195.007, 128.898 195.004 C 117.475 195, 115.985 195.211, 112.979 197.250 M 120 216 C 120 225, 120 225, 129 225 C 138 225, 138 225, 138 216 C 138 207, 138 207, 129 207 C 120 207, 120 207, 120 216 M 173.822 215.964 C 173.500 225.005, 173.500 225.005, 182.789 225.002 C 192.078 225, 192.078 225, 191.789 216.250 C 191.500 207.500, 191.500 207.500, 182.822 207.212 C 174.144 206.924, 174.144 206.924, 173.822 215.964 M 228.667 207.667 C 228.300 208.033, 228 212.083, 228 216.667 C 228 225, 228 225, 237 225 C 246 225, 246 225, 246 216 C 246 207, 246 207, 237.667 207 C 233.083 207, 229.033 207.300, 228.667 207.667 M 112.514 250.168 C 108.229 253.538, 107 257.750, 107 269.067 C 107 280.400, 108.368 284.702, 113.028 288.020 C 115.447 289.743, 117.454 290, 128.470 290 C 148.278 290, 150.004 288.301, 149.993 268.816 C 149.988 258.327, 149.700 256.065, 148.054 253.567 C 144.834 248.683, 142.668 248.074, 128.385 248.035 C 116.415 248.003, 115.029 248.189, 112.514 250.168 M 165.666 251.279 C 161.528 255.182, 160.621 259.476, 161.148 272.675 C 161.440 280.008, 161.900 282.061, 163.868 284.819 C 165.170 286.645, 167.336 288.558, 168.683 289.069 C 172.442 290.499, 195.065 290.171, 197.810 288.647 C 202.931 285.805, 203.986 282.488, 203.993 269.200 C 204.004 249.430, 202.562 248, 182.606 248 C 169.142 248, 169.142 248, 165.666 251.279 M 220.106 250.564 C 216.190 253.860, 215.012 258.295, 215.006 269.782 C 214.999 280.735, 216.485 285.106, 221.190 287.974 C 224.036 289.709, 226.227 289.993, 236.816 289.996 C 256.186 290.002, 258 288.206, 258 269.016 C 258 249.454, 256.520 248, 236.612 248 C 223.625 248, 223.047 248.090, 220.106 250.564 M 120 269 C 120 278, 120 278, 129 278 C 138 278, 138 278, 138 269 C 138 260, 138 260, 129 260 C 120 260, 120 260, 120 269 M 173.821 268.998 C 174.142 278, 174.142 278, 183.071 278 C 192 278, 192 278, 192 269 C 192 260, 192 260, 182.750 259.998 C 173.500 259.995, 173.500 259.995, 173.821 268.998 M 227.819 268.929 C 228.138 277.862, 228.138 277.862, 237.071 278.181 C 246.005 278.500, 246.005 278.500, 246.002 269.250 C 246 260, 246 260, 236.750 259.998 C 227.500 259.995, 227.500 259.995, 227.819 268.929" stroke="none" fill="#171717" fill-rule="evenodd"/></svg>